<svg width="18" height="23" viewBox="0 0 18 23" fill="none" xmlns="http://www.w3.org/2000/svg">
<path d="M14.8458 11.8636C14.8565 11.0289 15.0782 10.2105 15.4903 9.48457C15.9023 8.75861 16.4912 8.14868 17.2023 7.7115C16.7506 7.06634 16.1547 6.5354 15.4618 6.16085C14.769 5.7863 13.9984 5.57845 13.2112 5.55382C11.5319 5.37756 9.90399 6.55865 9.04827 6.55865C8.17601 6.55865 6.8585 5.57132 5.43977 5.60051C4.5221 5.63016 3.62775 5.89701 2.84388 6.37507C2.06 6.85313 1.41332 7.52609 0.966855 8.32838C-0.967145 11.6768 0.475444 16.5979 2.32805 19.3045C3.25495 20.6298 4.33823 22.1103 5.75568 22.0578C7.14274 22.0002 7.66078 21.1733 9.33508 21.1733C10.9938 21.1733 11.4799 22.0578 12.9261 22.0244C14.4145 22.0002 15.3522 20.6931 16.2466 19.3552C16.9126 18.4109 17.425 17.3672 17.765 16.2627C16.9003 15.897 16.1624 15.2848 15.6433 14.5025C15.1241 13.7202 14.8468 12.8024 14.8458 11.8636Z" fill="white"/>
<path d="M12.1134 3.77382C12.9249 2.79961 13.3247 1.54744 13.2279 0.283203C11.9881 0.413424 10.8428 1.00598 10.0203 1.94281C9.61818 2.40048 9.31018 2.93291 9.11393 3.50968C8.91769 4.08645 8.83704 4.69625 8.87661 5.3042C9.49675 5.31059 10.1103 5.17618 10.6709 4.91109C11.2316 4.646 11.7248 4.25715 12.1134 3.77382Z" fill="white"/>
</svg>
