<svg width="184" height="184" viewBox="0 0 184 184" fill="none" xmlns="http://www.w3.org/2000/svg">
<g filter="url(#filter0_d_1_997)">
<rect x="34" y="28" width="88" height="88" rx="24" fill="white" fill-opacity="0.5" shape-rendering="crispEdges"/>
<rect x="34.5" y="28.5" width="87" height="87" rx="23.5" stroke="url(#paint0_linear_1_997)" shape-rendering="crispEdges"/>
</g>
<path d="M99.0875 59.1424L73.1612 57.71L54 59.1424V87.3629C54 87.8548 54.4086 88.2534 54.9125 88.2534H98.1751C98.679 88.2534 99.0874 87.8548 99.0874 87.3631V59.1424H99.0875Z" fill="#F6F9F9"/>
<path d="M54.9125 88.2536H98.1752C98.6791 88.2536 99.0875 87.855 99.0875 87.3633V59.1426L95.2244 58.9502V73.7094C95.2244 75.4358 93.6593 76.764 91.9078 76.5218C91.5388 76.4707 91.1608 76.4467 90.7761 76.452C86.8693 76.5057 83.6765 79.6248 83.6255 83.4376C83.6251 83.4643 83.6249 83.491 83.6248 83.5177C83.6215 85.0907 82.3265 86.3687 80.7147 86.3687H54V87.3632C54 87.8549 54.4086 88.2536 54.9125 88.2536Z" fill="#E7ECF1"/>
<path d="M94.7779 76.6469V79.1765C94.7779 79.2743 94.6967 79.3536 94.5965 79.3536H90.9159C90.8157 79.3536 90.7344 79.2743 90.7344 79.1765V76.6469C90.7344 76.5491 90.8157 76.4699 90.9159 76.4699H94.5965C94.6966 76.4698 94.7779 76.5491 94.7779 76.6469ZM94.7779 72.4352C94.7779 72.3374 94.6967 72.2581 94.5965 72.2581H90.9159C90.8157 72.2581 90.7344 72.3374 90.7344 72.4352V74.9648C90.7344 75.0626 90.8157 75.1418 90.9159 75.1418H94.5965C94.6967 75.1418 94.7779 75.0626 94.7779 74.9648V72.4352ZM94.7779 68.2234C94.7779 68.1256 94.6967 68.0464 94.5965 68.0464H90.9159C90.8157 68.0464 90.7344 68.1257 90.7344 68.2234V70.753C90.7344 70.8508 90.8157 70.93 90.9159 70.93H94.5965C94.6967 70.93 94.7779 70.8508 94.7779 70.753V68.2234ZM94.7779 64.0118C94.7779 63.9139 94.6967 63.8347 94.5965 63.8347H90.9159C90.8157 63.8347 90.7344 63.914 90.7344 64.0118V66.5413C90.7344 66.6391 90.8157 66.7184 90.9159 66.7184H94.5965C94.6967 66.7184 94.7779 66.6391 94.7779 66.5413V64.0118Z" fill="#DA4A54"/>
<path d="M90.9159 79.3534H94.5965C94.6967 79.3534 94.7779 79.2741 94.7779 79.1763V76.6468C94.7779 76.549 94.6967 76.4697 94.5965 76.4697H93.0047C92.657 76.5526 92.2865 76.5738 91.9073 76.5213C91.7441 76.4987 91.5792 76.4815 91.4127 76.4697H90.9159C90.8157 76.4697 90.7344 76.549 90.7344 76.6468V79.1763C90.7345 79.2741 90.8158 79.3534 90.9159 79.3534Z" fill="#D82E3D"/>
<path d="M83.9695 70.7531C83.9695 70.8509 83.8882 70.9301 83.788 70.9301H80.1074C80.0071 70.9301 79.926 70.8509 79.926 70.7531V68.2235C79.926 68.1257 80.0071 68.0465 80.1074 68.0465H83.788C83.8882 68.0465 83.9695 68.1258 83.9695 68.2235V70.7531ZM83.9695 64.0118C83.9695 63.914 83.8882 63.8348 83.788 63.8348H80.1074C80.0071 63.8348 79.926 63.9141 79.926 64.0118V66.5414C79.926 66.6392 80.0071 66.7185 80.1074 66.7185H83.788C83.8882 66.7185 83.9695 66.6392 83.9695 66.5414V64.0118ZM83.7881 76.4699H80.1075C80.0072 76.4699 79.9261 76.5491 79.9261 76.6469V79.1765C79.9261 79.2743 80.0072 79.3536 80.1075 79.3536H83.7881C83.8883 79.3536 83.9696 79.2743 83.9696 79.1765V76.647C83.9695 76.5492 83.8883 76.4699 83.7881 76.4699ZM63.8767 66.7185H67.5752C67.6755 66.7185 67.7567 66.6392 67.7567 66.5414V64.0118C67.7567 63.914 67.6755 63.8348 67.5752 63.8348H63.8767C63.7765 63.8348 63.6953 63.9141 63.6953 64.0118V66.5414C63.6953 66.6391 63.7765 66.7185 63.8767 66.7185ZM63.6953 70.7531C63.6953 70.8509 63.7765 70.9301 63.8767 70.9301H67.5752C67.6755 70.9301 67.7567 70.8509 67.7567 70.7531V68.2235C67.7567 68.1257 67.6755 68.0465 67.5752 68.0465H63.8767C63.7765 68.0465 63.6953 68.1258 63.6953 68.2235V70.7531ZM83.9695 72.4353C83.9695 72.3375 83.8882 72.2582 83.788 72.2582H80.1074C80.0071 72.2582 79.926 72.3375 79.926 72.4353V74.9649C79.926 75.0627 80.0071 75.1419 80.1074 75.1419H83.788C83.8882 75.1419 83.9695 75.0627 83.9695 74.9649V72.4353ZM63.6953 74.9649C63.6953 75.0627 63.7765 75.1419 63.8767 75.1419H67.5752C67.6755 75.1419 67.7567 75.0627 67.7567 74.9649V72.4353C67.7567 72.3375 67.6755 72.2582 67.5752 72.2582H63.8767C63.7765 72.2582 63.6953 72.3375 63.6953 72.4353V74.9649ZM89.1924 76.4699H85.5118C85.4116 76.4699 85.3304 76.5491 85.3304 76.6469V79.1765C85.3304 79.2743 85.4116 79.3536 85.5118 79.3536H89.1924C89.2926 79.3536 89.3738 79.2743 89.3738 79.1765V76.647C89.3738 76.5492 89.2926 76.4699 89.1924 76.4699ZM89.3738 72.4353C89.3738 72.3375 89.2926 72.2582 89.1924 72.2582H85.5118C85.4116 72.2582 85.3304 72.3375 85.3304 72.4353V74.9649C85.3304 75.0627 85.4116 75.1419 85.5118 75.1419H89.1924C89.2926 75.1419 89.3738 75.0627 89.3738 74.9649V72.4353ZM89.3738 68.2235C89.3738 68.1257 89.2926 68.0465 89.1924 68.0465H85.5118C85.4116 68.0465 85.3304 68.1258 85.3304 68.2235V70.7531C85.3304 70.8509 85.4116 70.9301 85.5118 70.9301H89.1924C89.2926 70.9301 89.3738 70.8509 89.3738 70.7531V68.2235ZM89.3738 64.0118C89.3738 63.914 89.2926 63.8348 89.1924 63.8348H85.5118C85.4116 63.8348 85.3304 63.9141 85.3304 64.0118V66.5414C85.3304 66.6392 85.4116 66.7185 85.5118 66.7185H89.1924C89.2926 66.7185 89.3738 66.6392 89.3738 66.5414V64.0118ZM63.6953 83.3841C63.6953 83.4819 63.7765 83.5611 63.8767 83.5611H67.5752C67.6755 83.5611 67.7567 83.4819 67.7567 83.3841V80.8587C67.7567 80.7609 67.6755 80.6817 67.5752 80.6817H63.8767C63.7765 80.6817 63.6953 80.7609 63.6953 80.8587V83.3841ZM74.5217 79.1765C74.5217 79.2743 74.603 79.3536 74.7032 79.3536H78.3838C78.484 79.3536 78.5652 79.2743 78.5652 79.1765V76.647C78.5652 76.5492 78.4839 76.47 78.3838 76.47H74.7032C74.6029 76.47 74.5217 76.5492 74.5217 76.647V79.1765ZM74.7032 70.9301H78.3839C78.4841 70.9301 78.5653 70.8509 78.5653 70.7531V68.2235C78.5653 68.1257 78.484 68.0465 78.3839 68.0465H74.7032C74.603 68.0465 74.5218 68.1258 74.5218 68.2235V70.7531C74.5217 70.8509 74.603 70.9301 74.7032 70.9301ZM74.5217 74.9649C74.5217 75.0627 74.603 75.1419 74.7032 75.1419H78.3838C78.484 75.1419 78.5652 75.0627 78.5652 74.9649V72.4353C78.5652 72.3375 78.4839 72.2582 78.3838 72.2582H74.7032C74.6029 72.2582 74.5217 72.3375 74.5217 72.4353V74.9649ZM74.5217 83.3841C74.5217 83.4819 74.603 83.5611 74.7032 83.5611H78.3838C78.484 83.5611 78.5652 83.4819 78.5652 83.3841V80.8587C78.5652 80.7609 78.4839 80.6817 78.3838 80.6817H74.7032C74.6029 80.6817 74.5217 80.7609 74.5217 80.8587V83.3841ZM78.3838 63.8347H74.7032C74.6029 63.8347 74.5217 63.914 74.5217 64.0118V66.5413C74.5217 66.6391 74.603 66.7184 74.7032 66.7184H78.3838C78.484 66.7184 78.5652 66.6391 78.5652 66.5413V64.0118C78.5653 63.914 78.484 63.8347 78.3838 63.8347ZM63.6953 79.1765C63.6953 79.2743 63.7765 79.3536 63.8767 79.3536H67.5752C67.6755 79.3536 67.7567 79.2743 67.7567 79.1765V76.647C67.7567 76.5492 67.6755 76.47 67.5752 76.47H63.8767C63.7765 76.47 63.6953 76.5492 63.6953 76.647V79.1765ZM69.1175 83.3841C69.1175 83.4819 69.1987 83.5611 69.2989 83.5611H72.9796C73.0798 83.5611 73.161 83.4819 73.161 83.3841V80.8587C73.161 80.7609 73.0798 80.6817 72.9796 80.6817H69.2989C69.1987 80.6817 69.1175 80.7609 69.1175 80.8587V83.3841ZM69.1175 70.7531C69.1175 70.8509 69.1987 70.9301 69.2989 70.9301H72.9796C73.0798 70.9301 73.161 70.8509 73.161 70.7531V68.2235C73.161 68.1257 73.0798 68.0465 72.9796 68.0465H69.2989C69.1987 68.0465 69.1175 68.1258 69.1175 68.2235V70.7531ZM69.2989 66.7185H72.9796C73.0798 66.7185 73.161 66.6392 73.161 66.5414V64.0118C73.161 63.914 73.0798 63.8348 72.9796 63.8348H69.2989C69.1987 63.8348 69.1175 63.9141 69.1175 64.0118V66.5414C69.1175 66.6391 69.1987 66.7185 69.2989 66.7185ZM69.1175 74.9649C69.1175 75.0627 69.1987 75.1419 69.2989 75.1419H72.9796C73.0798 75.1419 73.161 75.0627 73.161 74.9649V72.4353C73.161 72.3375 73.0798 72.2582 72.9796 72.2582H69.2989C69.1987 72.2582 69.1175 72.3375 69.1175 72.4353V74.9649ZM69.1175 79.1765C69.1175 79.2743 69.1987 79.3536 69.2989 79.3536H72.9796C73.0798 79.3536 73.161 79.2743 73.161 79.1765V76.647C73.161 76.5492 73.0798 76.47 72.9796 76.47H69.2989C69.1987 76.47 69.1175 76.5492 69.1175 76.647V79.1765Z" fill="#DAE4EA"/>
<path d="M85.3302 79.1763C85.3302 79.2741 85.4114 79.3534 85.5116 79.3534H89.1922C89.2924 79.3534 89.3736 79.2741 89.3736 79.1763V76.6469C89.3736 76.633 89.3719 76.6196 89.3688 76.6067C87.7656 76.9421 86.3532 77.7999 85.3301 78.9863V79.1763H85.3302Z" fill="#C6D0DA"/>
<path d="M98.1748 53.939H54.9127C54.4086 53.939 54 54.3378 54 54.8296V59.1421H99.0875V54.8296C99.0875 54.3378 98.6788 53.939 98.1748 53.939Z" fill="#61A2F9"/>
<path d="M58.3086 70.753V68.2234C58.3086 68.1256 58.3898 68.0464 58.49 68.0464H62.1526C62.2528 68.0464 62.334 68.1257 62.334 68.2234V70.753C62.334 70.8508 62.2527 70.93 62.1526 70.93H58.4901C58.3899 70.93 58.3086 70.8508 58.3086 70.753ZM58.3086 74.9648C58.3086 75.0626 58.3898 75.1418 58.49 75.1418H62.1526C62.2528 75.1418 62.334 75.0626 62.334 74.9648V72.4352C62.334 72.3374 62.2527 72.2581 62.1526 72.2581H58.4901C58.3899 72.2581 58.3087 72.3374 58.3087 72.4352V74.9648H58.3086ZM58.3086 83.384C58.3086 83.4818 58.3898 83.561 58.49 83.561H62.1526C62.2528 83.561 62.334 83.4818 62.334 83.384V80.8586C62.334 80.7608 62.2527 80.6816 62.1526 80.6816H58.4901C58.3899 80.6816 58.3087 80.7608 58.3087 80.8586V83.384H58.3086ZM58.3086 79.1764C58.3086 79.2742 58.3898 79.3535 58.49 79.3535H62.1526C62.2528 79.3535 62.334 79.2742 62.334 79.1764V76.6469C62.334 76.5491 62.2527 76.4699 62.1526 76.4699H58.4901C58.3899 76.4699 58.3087 76.5491 58.3087 76.6469V79.1764H58.3086Z" fill="#DA4A54"/>
<path d="M59.0278 56.7638H57.88C57.3778 56.7638 56.9707 56.3665 56.9707 55.8764V52.8874C56.9707 52.3973 57.3779 52 57.88 52H59.0278C59.53 52 59.937 52.3974 59.937 52.8874V55.8763C59.937 56.3665 59.53 56.7638 59.0278 56.7638Z" fill="white"/>
<path d="M64.982 56.7638H63.9249C63.4227 56.7638 63.0156 56.3665 63.0156 55.8764V52.8874C63.0156 52.3973 63.4228 52 63.9249 52H64.9819C65.4842 52 65.8912 52.3974 65.8912 52.8874V55.8763C65.8913 56.3665 65.4842 56.7638 64.982 56.7638Z" fill="white"/>
<path d="M71.0269 56.7638H69.9698C69.4676 56.7638 69.0605 56.3665 69.0605 55.8764V52.8874C69.0605 52.3973 69.4676 52 69.9698 52H71.0269C71.5291 52 71.9361 52.3974 71.9361 52.8874V55.8763C71.9361 56.3665 71.5291 56.7638 71.0269 56.7638Z" fill="white"/>
<path d="M77.0737 56.7638H76.0167C75.5145 56.7638 75.1074 56.3665 75.1074 55.8764V52.8874C75.1074 52.3973 75.5146 52 76.0167 52H77.0737C77.576 52 77.983 52.3974 77.983 52.8874V55.8763C77.983 56.3665 77.576 56.7638 77.0737 56.7638Z" fill="white"/>
<path d="M83.1187 56.7638H82.0616C81.5594 56.7638 81.1523 56.3665 81.1523 55.8764V52.8874C81.1523 52.3973 81.5594 52 82.0616 52H83.1187C83.6209 52 84.0279 52.3974 84.0279 52.8874V55.8763C84.028 56.3665 83.6209 56.7638 83.1187 56.7638Z" fill="white"/>
<path d="M89.1636 56.7638H88.1065C87.6043 56.7638 87.1973 56.3665 87.1973 55.8764V52.8874C87.1973 52.3973 87.6044 52 88.1065 52H89.1636C89.6658 52 90.0729 52.3974 90.0729 52.8874V55.8763C90.073 56.3665 89.6658 56.7638 89.1636 56.7638Z" fill="white"/>
<path d="M98.1751 53.9392H96.118L95.5728 55.3443C95.5728 55.8292 95.2246 56.7636 95.2246 56.7636V59.1423H99.0877V54.8298C99.0878 54.3379 98.6791 53.9392 98.1751 53.9392Z" fill="#5490F9"/>
<path d="M95.2085 56.7638H94.1515C93.6493 56.7638 93.2422 56.3665 93.2422 55.8764V52.8874C93.2422 52.3973 93.6493 52 94.1515 52H95.2085C95.7107 52 96.1178 52.3974 96.1178 52.8874V55.8763C96.1178 56.3665 95.7106 56.7638 95.2085 56.7638Z" fill="white"/>
<path d="M94.7439 92.4979C98.751 92.4979 101.999 89.3277 101.999 85.417C101.999 81.5064 98.751 78.3362 94.7439 78.3362C90.7367 78.3362 87.4883 81.5064 87.4883 85.417C87.4883 89.3277 90.7367 92.4979 94.7439 92.4979Z" fill="#80E29D"/>
<path d="M95.9095 78.4268C97.2827 79.7151 98.1372 81.5261 98.1372 83.5318C98.1372 87.4424 94.8888 90.6126 90.8816 90.6126C90.4852 90.6126 90.0961 90.5815 89.7168 90.5219C91.021 91.7455 92.7927 92.4977 94.7447 92.4977C98.7519 92.4977 102 89.3275 102 85.4169C102 81.8931 99.3629 78.9707 95.9095 78.4268Z" fill="#78D090"/>
<path d="M98.8619 83.896L97.4908 82.5579C97.3467 82.4172 97.113 82.4172 96.9689 82.5579L94.3164 85.1465C94.1723 85.2872 93.9387 85.2872 93.7946 85.1465L92.5206 83.9033C92.3765 83.7626 92.1429 83.7626 91.9988 83.9033L90.6276 85.2414C90.4835 85.382 90.4835 85.61 90.6276 85.7507L93.7946 88.8414C93.9387 88.982 94.1723 88.982 94.3164 88.8414L98.8619 84.4053C99.006 84.2647 99.006 84.0367 98.8619 83.896Z" fill="#F6F9F9"/>
<path d="M98.1284 83.1804C98.1342 83.2969 98.1372 83.4142 98.1372 83.532C98.1372 84.1597 98.0535 84.7682 97.8965 85.3476L98.8618 84.4055C99.0059 84.2649 99.0059 84.0369 98.8618 83.8963L98.1284 83.1804Z" fill="#E7ECF1"/>
<defs>
<filter id="filter0_d_1_997" x="0" y="0" width="184" height="184" filterUnits="userSpaceOnUse" color-interpolation-filters="sRGB">
<feFlood flood-opacity="0" result="BackgroundImageFix"/>
<feColorMatrix in="SourceAlpha" type="matrix" values="0 0 0 0 0 0 0 0 0 0 0 0 0 0 0 0 0 0 127 0" result="hardAlpha"/>
<feOffset dx="14" dy="20"/>
<feGaussianBlur stdDeviation="24"/>
<feComposite in2="hardAlpha" operator="out"/>
<feColorMatrix type="matrix" values="0 0 0 0 0.0978704 0 0 0 0 0.0602778 0 0 0 0 0.173056 0 0 0 0.06 0"/>
<feBlend mode="normal" in2="BackgroundImageFix" result="effect1_dropShadow_1_997"/>
<feBlend mode="normal" in="SourceGraphic" in2="effect1_dropShadow_1_997" result="shape"/>
</filter>
<linearGradient id="paint0_linear_1_997" x1="78" y1="28" x2="78" y2="116" gradientUnits="userSpaceOnUse">
<stop stop-color="white"/>
<stop offset="1" stop-color="white" stop-opacity="0"/>
</linearGradient>
</defs>
</svg>
