<svg width="39" height="43" viewBox="0 0 39 43" fill="none" xmlns="http://www.w3.org/2000/svg">
<path d="M21.3462 39.6314H10.8178C6.41457 39.6314 2.8429 35.6737 2.8429 30.7865V12.6537C2.8429 7.77016 6.4113 3.80884 10.8178 3.80884H23.6477C22.217 3.96497 20.8322 4.30264 19.5031 4.83275C17.6141 5.58798 16.0787 6.72446 14.8969 8.23855C13.7151 9.75264 13.1225 11.5681 13.1225 13.6885C13.1225 15.9579 13.6234 17.8024 14.6252 19.2112C15.6237 20.6236 16.8317 21.6838 18.2427 22.3882C19.6504 23.0962 21.4706 23.8006 23.7 24.5087C25.5203 25.115 26.9411 25.6451 27.9657 26.099C28.9872 26.5529 29.8416 27.1846 30.5258 27.9907C31.2068 28.7968 31.5472 29.8316 31.5472 31.0915C31.5472 32.9578 30.9449 34.4101 29.7401 35.4413C28.5354 36.4761 26.8625 36.9917 24.7247 36.9917C22.3578 36.9917 20.5507 36.5488 19.3001 35.6664C18.0495 34.7841 17.4242 33.5859 17.4242 32.0718C17.4242 30.9644 17.6861 30.1039 18.2099 29.4975C18.7337 28.8912 18.9956 28.5644 18.9956 28.5135C18.9956 28.263 18.7108 27.9072 18.1412 27.4533C17.5716 26.9995 16.9233 26.7707 16.1966 26.7707C14.9231 26.7707 13.8886 27.2246 13.093 28.1323C12.2975 29.04 11.8981 30.2273 11.8981 31.6906C11.8981 34.2649 13.0341 36.2583 15.3094 37.6671C16.9594 38.7019 18.976 39.3482 21.3462 39.6314Z" fill="#FA865F"/>
<path d="M27.4682 0.657227H10.677C4.83663 0.657227 0.0831299 5.92931 0.0831299 12.4068V31.0298C0.0831299 37.511 4.83663 42.7794 10.677 42.7794H27.4682C33.3118 42.7794 38.0653 37.5073 38.0653 31.0298V12.4068C38.0653 5.92931 33.3118 0.657227 27.4682 0.657227ZM37.1585 31.0298C37.1585 36.9627 32.8208 41.7736 27.4714 41.7736H10.677C5.3277 41.7736 0.989962 36.9627 0.989962 31.0298V12.4068C0.989962 6.47394 5.3277 1.66299 10.677 1.66299H27.4682C29.75 1.66299 31.8452 2.5453 33.5017 4.01582C35.3874 6.0346 36.6314 9.41861 35.2237 12.8062C35.0371 13.3763 34.7588 13.8992 34.3889 14.3712C33.6392 15.3297 32.6473 15.809 31.4196 15.809C30.6895 15.809 30.0446 15.5803 29.475 15.1264C28.9053 14.6725 28.6205 14.3203 28.6205 14.0662C28.6205 14.0153 28.8039 13.8156 29.1672 13.4598C29.5306 13.1076 29.8613 12.6901 30.1592 12.2108C30.4538 11.7315 30.6044 11.1651 30.6044 10.5079C30.5128 9.14629 29.8973 8.08607 28.7613 7.33084C27.622 6.57561 26.2798 6.19436 24.7346 6.19436C23.006 6.19436 21.4935 6.63733 20.1971 7.51965C18.9007 8.40196 18.2525 9.62557 18.2525 11.1905C18.2525 12.6029 18.5242 13.7249 19.071 14.5563C19.6177 15.3878 20.4361 16.0595 21.5263 16.5606C22.6164 17.0653 24.345 17.7479 26.7119 18.6048C29.1214 19.4617 31.0104 20.2569 32.3755 20.9903C33.5344 21.6112 34.474 22.4245 35.2237 23.4085C35.2335 23.423 35.2433 23.4339 35.2532 23.4484C36.5234 25.1441 37.1585 27.3117 37.1585 29.5157V31.0298Z" fill="#FA865F"/>
</svg>
