<svg width="16" height="17" viewBox="0 0 16 17" fill="none" xmlns="http://www.w3.org/2000/svg">
<g clip-path="url(#clip0_1_509)">
<path fill-rule="evenodd" clip-rule="evenodd" d="M7.77188 0.000244141C8.81088 0.0397208 9.88698 0.0397209 10.926 0.0791935C11.8537 0.118666 12.7071 0.276564 13.5235 0.789726C14.5625 1.46079 15.1933 2.44764 15.4159 3.71081C15.5273 4.46082 15.5644 5.25029 15.6015 6.00031C15.6386 7.65821 15.6015 9.31613 15.6015 10.974C15.6015 11.8425 15.5644 12.7109 15.3046 13.5398C14.7851 15.1583 13.709 16.1451 12.1505 16.4609C11.4455 16.6188 10.7033 16.6188 9.99831 16.6583C8.4398 16.6978 6.91841 16.6583 5.35991 16.6583C4.54356 16.6583 3.7272 16.6188 2.94796 16.3425C1.42656 15.7899 0.498884 14.6451 0.202026 12.9872C0.0536001 12.2372 0.0536001 11.4477 0.0164926 10.6977C-0.0206158 9.03981 0.0164926 7.38189 0.0164926 5.72399C0.0164926 4.85556 0.0536001 3.98713 0.313349 3.15817C0.83285 1.53973 1.90895 0.552885 3.46745 0.23709C4.17249 0.0791986 4.91463 0.0791986 5.61967 0.0397208C6.3247 0.000244141 7.02973 0.000244141 7.77188 0.000244141ZM14.1906 8.17143C14.1535 8.17143 14.1906 8.17143 14.1906 8.17143C14.1535 7.50037 14.1535 6.86878 14.1535 6.19772C14.1535 5.56614 14.1164 4.93455 14.0422 4.30297C13.8938 2.8819 13.1145 1.93452 11.8158 1.65821C11.1478 1.50031 10.4057 1.50031 9.73777 1.50031C8.40191 1.46083 7.10316 1.46083 5.76731 1.50031C5.09938 1.50031 4.43145 1.53978 3.80063 1.65821C2.68742 1.85557 1.90817 2.52663 1.57421 3.71086C1.46288 4.10559 1.42578 4.50034 1.38867 4.89508C1.35156 6.39509 1.35156 7.89511 1.35156 9.39512C1.35156 10.3425 1.38867 11.3294 1.46288 12.2767C1.57421 13.6978 2.39056 14.6846 3.72642 14.9215C4.39434 15.0399 5.09938 15.0794 5.80441 15.0794C7.10316 15.1189 8.40191 15.0794 9.73777 15.0794C10.3315 15.0794 10.9252 15.0399 11.5189 14.961C12.0755 14.9215 12.595 14.7241 13.0403 14.3294C13.7824 13.6978 14.0422 12.8688 14.0793 11.9215C14.1535 10.7372 14.1535 9.47407 14.1906 8.17143Z" fill="#18063C"/>
<path fill-rule="evenodd" clip-rule="evenodd" d="M11.7808 8.32983C11.7808 10.6983 9.99962 12.593 7.7732 12.593C5.54677 12.593 3.76562 10.6983 3.76562 8.29036C3.76562 5.96139 5.58387 4.06665 7.8103 4.06665C9.99962 4.06665 11.7808 5.96139 11.7808 8.32983ZM7.77413 11.093C9.1842 11.093 10.3716 9.82983 10.3716 8.32983C10.3716 6.82982 9.1842 5.56665 7.77413 5.56665C6.32695 5.56665 5.17663 6.82982 5.17663 8.32983C5.13952 9.82983 6.32695 11.093 7.77413 11.093Z" fill="#18063C"/>
<path d="M12.8536 3.63691C12.8536 4.15641 12.4454 4.60169 11.9259 4.60169C11.4064 4.60169 10.9611 4.15641 10.9983 3.63691C10.9983 3.11741 11.4064 2.70923 11.9259 2.70923C12.4454 2.70923 12.8536 3.1174 12.8536 3.63691Z" fill="#18063C"/>
</g>
<defs>
<clipPath id="clip0_1_509">
<rect width="15.618" height="16.6756" fill="white" transform="translate(0 0.000244141)"/>
</clipPath>
</defs>
</svg>
