<svg width="18" height="17" viewBox="0 0 18 17" fill="none" xmlns="http://www.w3.org/2000/svg">
<path fill-rule="evenodd" clip-rule="evenodd" d="M17.3465 10.148V16.5539H13.6059V10.5688C13.6059 9.07257 13.0915 8.0439 11.7355 8.0439C10.7068 8.0439 10.099 8.74527 9.81843 9.39989C9.72492 9.63367 9.67816 9.96099 9.67816 10.2883V16.5539H5.9375C5.9375 16.5539 5.98426 6.40737 5.9375 5.3787H9.67816V6.96847C9.67816 6.96847 9.67816 7.01522 9.6314 7.01522H9.67816V6.96847C10.1925 6.22034 11.0342 5.09814 13.0448 5.09814C15.4762 5.09814 17.3465 6.73468 17.3465 10.148ZM2.10412 0.00146484C0.841646 0.00146484 0 0.843109 0 1.91855C0 2.99397 0.794889 3.83563 2.05736 3.83563H2.10412C3.41335 3.83563 4.20824 2.99398 4.20824 1.91855C4.16148 0.843109 3.36659 0.00146484 2.10412 0.00146484ZM0.1875 16.5538H3.88142V5.37866H0.1875V16.5538Z" fill="#18063C"/>
</svg>
