<svg width="198" height="43" viewBox="0 0 198 43" fill="none" xmlns="http://www.w3.org/2000/svg">
<path d="M82.1601 30.252C80.4081 30.252 78.8241 29.952 77.4081 29.352C76.0161 28.752 74.9121 27.888 74.0961 26.76C73.2801 25.632 72.8601 24.3 72.8361 22.764H78.2361C78.3081 23.796 78.6681 24.612 79.3161 25.212C79.9881 25.812 80.9001 26.112 82.0521 26.112C83.2281 26.112 84.1521 25.836 84.8241 25.284C85.4961 24.708 85.8321 23.964 85.8321 23.052C85.8321 22.308 85.6041 21.696 85.1481 21.216C84.6921 20.736 84.1161 20.364 83.4201 20.1C82.7481 19.812 81.8121 19.5 80.6121 19.164C78.9801 18.684 77.6481 18.216 76.6161 17.76C75.6081 17.28 74.7321 16.572 73.9881 15.636C73.2681 14.676 72.9081 13.404 72.9081 11.82C72.9081 10.332 73.2801 9.03596 74.0241 7.93196C74.7681 6.82796 75.8121 5.98796 77.1561 5.41196C78.5001 4.81196 80.0361 4.51196 81.7641 4.51196C84.3561 4.51196 86.4561 5.14796 88.0641 6.41996C89.6961 7.66796 90.5961 9.41996 90.7641 11.676H85.2201C85.1721 10.812 84.8001 10.104 84.1041 9.55196C83.4321 8.97596 82.5321 8.68796 81.4041 8.68796C80.4201 8.68796 79.6281 8.93996 79.0281 9.44396C78.4521 9.94796 78.1641 10.68 78.1641 11.64C78.1641 12.312 78.3801 12.876 78.8121 13.332C79.2681 13.764 79.8201 14.124 80.4681 14.412C81.1401 14.676 82.0761 14.988 83.2761 15.348C84.9081 15.828 86.2401 16.308 87.2721 16.788C88.3041 17.268 89.1921 17.988 89.9361 18.948C90.6801 19.908 91.0521 21.168 91.0521 22.728C91.0521 24.072 90.7041 25.32 90.0081 26.472C89.3121 27.624 88.2921 28.548 86.9481 29.244C85.6041 29.916 84.0081 30.252 82.1601 30.252Z" fill="#18063C"/>
<path d="M93.7656 19.956C93.7656 17.94 94.1616 16.152 94.9536 14.592C95.7696 13.032 96.8616 11.832 98.2296 10.992C99.6216 10.152 101.17 9.73196 102.874 9.73196C104.362 9.73196 105.658 10.032 106.762 10.632C107.89 11.232 108.79 11.988 109.462 12.9V10.056H114.538V30H109.462V27.084C108.814 28.02 107.914 28.8 106.762 29.424C105.634 30.024 104.326 30.324 102.838 30.324C101.158 30.324 99.6216 29.892 98.2296 29.028C96.8616 28.164 95.7696 26.952 94.9536 25.392C94.1616 23.808 93.7656 21.996 93.7656 19.956ZM109.462 20.028C109.462 18.804 109.222 17.76 108.742 16.896C108.262 16.008 107.614 15.336 106.798 14.88C105.982 14.4 105.106 14.16 104.17 14.16C103.234 14.16 102.37 14.388 101.578 14.844C100.786 15.3 100.138 15.972 99.6336 16.86C99.1536 17.724 98.9136 18.756 98.9136 19.956C98.9136 21.156 99.1536 22.212 99.6336 23.124C100.138 24.012 100.786 24.696 101.578 25.176C102.394 25.656 103.258 25.896 104.17 25.896C105.106 25.896 105.982 25.668 106.798 25.212C107.614 24.732 108.262 24.06 108.742 23.196C109.222 22.308 109.462 21.252 109.462 20.028Z" fill="#18063C"/>
<path d="M117.804 19.956C117.804 17.94 118.2 16.152 118.992 14.592C119.808 13.032 120.9 11.832 122.268 10.992C123.66 10.152 125.208 9.73196 126.912 9.73196C128.4 9.73196 129.696 10.032 130.8 10.632C131.928 11.232 132.828 11.988 133.5 12.9V10.056H138.576V30H133.5V27.084C132.852 28.02 131.952 28.8 130.8 29.424C129.672 30.024 128.364 30.324 126.876 30.324C125.196 30.324 123.66 29.892 122.268 29.028C120.9 28.164 119.808 26.952 118.992 25.392C118.2 23.808 117.804 21.996 117.804 19.956ZM133.5 20.028C133.5 18.804 133.26 17.76 132.78 16.896C132.3 16.008 131.652 15.336 130.836 14.88C130.02 14.4 129.144 14.16 128.208 14.16C127.272 14.16 126.408 14.388 125.616 14.844C124.824 15.3 124.176 15.972 123.672 16.86C123.192 17.724 122.952 18.756 122.952 19.956C122.952 21.156 123.192 22.212 123.672 23.124C124.176 24.012 124.824 24.696 125.616 25.176C126.432 25.656 127.296 25.896 128.208 25.896C129.144 25.896 130.02 25.668 130.836 25.212C131.652 24.732 132.3 24.06 132.78 23.196C133.26 22.308 133.5 21.252 133.5 20.028Z" fill="#18063C"/>
<path d="M151.814 30.252C150.062 30.252 148.478 29.952 147.062 29.352C145.67 28.752 144.566 27.888 143.75 26.76C142.934 25.632 142.514 24.3 142.49 22.764H147.89C147.962 23.796 148.322 24.612 148.97 25.212C149.642 25.812 150.554 26.112 151.706 26.112C152.882 26.112 153.806 25.836 154.478 25.284C155.15 24.708 155.486 23.964 155.486 23.052C155.486 22.308 155.258 21.696 154.802 21.216C154.346 20.736 153.77 20.364 153.074 20.1C152.402 19.812 151.466 19.5 150.266 19.164C148.634 18.684 147.302 18.216 146.27 17.76C145.262 17.28 144.386 16.572 143.642 15.636C142.922 14.676 142.562 13.404 142.562 11.82C142.562 10.332 142.934 9.03596 143.678 7.93196C144.422 6.82796 145.466 5.98796 146.81 5.41196C148.154 4.81196 149.69 4.51196 151.418 4.51196C154.01 4.51196 156.11 5.14796 157.718 6.41996C159.35 7.66796 160.25 9.41996 160.418 11.676H154.874C154.826 10.812 154.454 10.104 153.758 9.55196C153.086 8.97596 152.186 8.68796 151.058 8.68796C150.074 8.68796 149.282 8.93996 148.682 9.44396C148.106 9.94796 147.818 10.68 147.818 11.64C147.818 12.312 148.034 12.876 148.466 13.332C148.922 13.764 149.474 14.124 150.122 14.412C150.794 14.676 151.73 14.988 152.93 15.348C154.562 15.828 155.894 16.308 156.926 16.788C157.958 17.268 158.846 17.988 159.59 18.948C160.334 19.908 160.706 21.168 160.706 22.728C160.706 24.072 160.358 25.32 159.662 26.472C158.966 27.624 157.946 28.548 156.602 29.244C155.258 29.916 153.662 30.252 151.814 30.252Z" fill="#18063C"/>
<path d="M170.584 14.196V23.844C170.584 24.516 170.74 25.008 171.052 25.32C171.388 25.608 171.94 25.752 172.708 25.752H175.048V30H171.88C167.632 30 165.508 27.936 165.508 23.808V14.196H163.132V10.056H165.508V5.12396H170.584V10.056H175.048V14.196H170.584Z" fill="#18063C"/>
<path d="M187.169 30.324C185.249 30.324 183.521 29.904 181.985 29.064C180.449 28.2 179.237 26.988 178.349 25.428C177.485 23.868 177.053 22.068 177.053 20.028C177.053 17.988 177.497 16.188 178.385 14.628C179.297 13.068 180.533 11.868 182.093 11.028C183.653 10.164 185.393 9.73196 187.313 9.73196C189.233 9.73196 190.973 10.164 192.533 11.028C194.093 11.868 195.317 13.068 196.205 14.628C197.117 16.188 197.573 17.988 197.573 20.028C197.573 22.068 197.105 23.868 196.169 25.428C195.257 26.988 194.009 28.2 192.425 29.064C190.865 29.904 189.113 30.324 187.169 30.324ZM187.169 25.932C188.081 25.932 188.933 25.716 189.725 25.284C190.541 24.828 191.189 24.156 191.669 23.268C192.149 22.38 192.389 21.3 192.389 20.028C192.389 18.132 191.885 16.68 190.877 15.672C189.893 14.64 188.681 14.124 187.241 14.124C185.801 14.124 184.589 14.64 183.605 15.672C182.645 16.68 182.165 18.132 182.165 20.028C182.165 21.924 182.633 23.388 183.569 24.42C184.529 25.428 185.729 25.932 187.169 25.932Z" fill="#18063C"/>
<path d="M21.3462 39.6314H10.8178C6.41457 39.6314 2.8429 35.6737 2.8429 30.7865V12.6537C2.8429 7.77016 6.4113 3.80884 10.8178 3.80884H23.6477C22.217 3.96497 20.8322 4.30264 19.5031 4.83275C17.6141 5.58798 16.0787 6.72446 14.8969 8.23855C13.7151 9.75264 13.1225 11.5681 13.1225 13.6885C13.1225 15.9579 13.6234 17.8024 14.6252 19.2112C15.6237 20.6236 16.8317 21.6838 18.2427 22.3882C19.6504 23.0962 21.4706 23.8006 23.7 24.5087C25.5203 25.115 26.9411 25.6451 27.9657 26.099C28.9872 26.5529 29.8416 27.1846 30.5258 27.9907C31.2068 28.7968 31.5472 29.8316 31.5472 31.0915C31.5472 32.9578 30.9449 34.4101 29.7401 35.4413C28.5354 36.4761 26.8625 36.9917 24.7247 36.9917C22.3578 36.9917 20.5507 36.5488 19.3001 35.6664C18.0495 34.7841 17.4242 33.5859 17.4242 32.0718C17.4242 30.9644 17.6861 30.1039 18.2099 29.4975C18.7337 28.8912 18.9956 28.5644 18.9956 28.5135C18.9956 28.263 18.7108 27.9072 18.1412 27.4533C17.5716 26.9995 16.9233 26.7707 16.1966 26.7707C14.9231 26.7707 13.8886 27.2246 13.093 28.1323C12.2975 29.04 11.8981 30.2273 11.8981 31.6906C11.8981 34.2649 13.0341 36.2583 15.3094 37.6671C16.9594 38.7019 18.976 39.3482 21.3462 39.6314Z" fill="#FA865F"/>
<path d="M27.4682 0.657227H10.677C4.83663 0.657227 0.0831299 5.92931 0.0831299 12.4068V31.0298C0.0831299 37.511 4.83663 42.7794 10.677 42.7794H27.4682C33.3118 42.7794 38.0653 37.5073 38.0653 31.0298V12.4068C38.0653 5.92931 33.3118 0.657227 27.4682 0.657227ZM37.1585 31.0298C37.1585 36.9627 32.8208 41.7736 27.4714 41.7736H10.677C5.3277 41.7736 0.989962 36.9627 0.989962 31.0298V12.4068C0.989962 6.47394 5.3277 1.66299 10.677 1.66299H27.4682C29.75 1.66299 31.8452 2.5453 33.5017 4.01582C35.3874 6.0346 36.6314 9.41861 35.2237 12.8062C35.0371 13.3763 34.7588 13.8992 34.3889 14.3712C33.6392 15.3297 32.6473 15.809 31.4196 15.809C30.6895 15.809 30.0446 15.5803 29.475 15.1264C28.9053 14.6725 28.6205 14.3203 28.6205 14.0662C28.6205 14.0153 28.8039 13.8156 29.1672 13.4598C29.5306 13.1076 29.8613 12.6901 30.1592 12.2108C30.4538 11.7315 30.6044 11.1651 30.6044 10.5079C30.5128 9.14629 29.8973 8.08607 28.7613 7.33084C27.622 6.57561 26.2798 6.19436 24.7346 6.19436C23.006 6.19436 21.4935 6.63733 20.1971 7.51965C18.9007 8.40196 18.2525 9.62557 18.2525 11.1905C18.2525 12.6029 18.5242 13.7249 19.071 14.5563C19.6177 15.3878 20.4361 16.0595 21.5263 16.5606C22.6164 17.0653 24.345 17.7479 26.7119 18.6048C29.1214 19.4617 31.0104 20.2569 32.3755 20.9903C33.5344 21.6112 34.474 22.4245 35.2237 23.4085C35.2335 23.423 35.2433 23.4339 35.2532 23.4484C36.5234 25.1441 37.1585 27.3117 37.1585 29.5157V31.0298Z" fill="#FA865F"/>
</svg>
