<svg width="23" height="24" viewBox="0 0 23 24" fill="none" xmlns="http://www.w3.org/2000/svg">
<path d="M16.6038 15.3505L13.1175 11.82L16.6011 8.27208C19.0894 9.66066 20.9999 10.7216 21.367 10.9162C22.5525 11.5615 21.9501 12.3923 21.367 12.7063C21.2408 12.7698 20.1887 13.3553 18.6278 14.2238L18.6265 14.2246C18.3752 14.3644 18.1108 14.5116 17.835 14.6652C17.4457 14.882 17.0338 15.1114 16.6038 15.3505Z" fill="#FF553E"/>
<path d="M15.9691 15.7035L12.6272 12.3193L1.46004 23.6923C1.59461 23.6513 1.73743 23.5891 1.88994 23.5043C2.00418 23.441 2.28205 23.2873 2.69049 23.0614L2.71481 23.0479C5.01323 21.7767 11.3239 18.2862 15.9691 15.7035Z" fill="#FF553E"/>
<path d="M0.54767 23.6229C0.220008 23.3993 0.0484619 22.9316 0.0484619 22.3411V1.39114C0.0484619 0.738086 0.275853 0.33626 0.590777 0.130248L12.1356 11.8214L0.54767 23.6229Z" fill="#FF553E"/>
<path d="M1.44545 0L12.6258 11.3221L15.9549 7.93159C13.8906 6.79151 2.63532 0.575944 1.88975 0.174435C1.7481 0.0891815 1.59722 0.0318221 1.44545 0Z" fill="#FF553E"/>
</svg>