<svg width="18" height="15" viewBox="0 0 18 15" fill="none" xmlns="http://www.w3.org/2000/svg">
<path fill-rule="evenodd" clip-rule="evenodd" d="M17.3474 2.11099C16.6943 2.39672 16.0412 2.6008 15.3065 2.68243C16.0412 2.23345 16.6127 1.53956 16.8576 0.723218C16.1637 1.13139 15.3882 1.41711 14.6126 1.58037C13.9596 0.886484 13.0208 0.4375 12.0003 0.4375C10.0411 0.4375 8.44921 2.02936 8.44921 3.98858C8.44921 4.2743 8.49003 4.56001 8.53084 4.80492C5.55117 4.64165 2.93886 3.25387 1.1837 1.09057C0.857165 1.62119 0.693896 2.23345 0.693896 2.88652C0.693896 4.11103 1.30616 5.21309 2.28578 5.86616C1.71433 5.86616 1.14289 5.70289 0.653078 5.41717V5.45798C0.653078 7.17231 1.8776 8.64171 3.5103 8.96824C3.22457 9.04988 2.89804 9.0907 2.5715 9.0907C2.32659 9.0907 2.12251 9.04988 1.91842 9.00907C2.36741 10.4377 3.67357 11.4581 5.26545 11.4989C4.04093 12.4377 2.53068 13.0091 0.857165 13.0091C0.571445 13.0091 0.285724 13.0091 0 12.9683C1.59188 13.9887 3.42866 14.5602 5.46954 14.5602C12.0411 14.5602 15.5923 9.13151 15.5923 4.43757C15.5923 4.2743 15.5923 4.11103 15.5923 3.98858C16.2862 3.45796 16.8984 2.80488 17.3474 2.11099Z" fill="#5BC17F"/>
</svg>
